<svg fill="none" height="512" viewBox="0 0 100 100" width="512" xmlns="http://www.w3.org/2000/svg"><path clip-rule="evenodd" d="m84.5 23c0 .8284-.6716 1.5-1.5 1.5h-66c-.8284 0-1.5-.6716-1.5-1.5s.6716-1.5 1.5-1.5h66c.8284 0 1.5.6716 1.5 1.5zm0 27c0 .8284-.6716 1.5-1.5 1.5h-66c-.8284 0-1.5-.6716-1.5-1.5s.6716-1.5 1.5-1.5h66c.8284 0 1.5.6716 1.5 1.5zm-34.5 28.5c.8284 0 1.5-.6716 1.5-1.5s-.6716-1.5-1.5-1.5h-33c-.8284 0-1.5.6716-1.5 1.5s.6716 1.5 1.5 1.5z" fill="rgb(0,0,0)" fill-rule="evenodd"/></svg>