<?xml version="1.0"?>
<svg xmlns="http://www.w3.org/2000/svg" xmlns:xlink="http://www.w3.org/1999/xlink" xmlns:svgjs="http://svgjs.com/svgjs" version="1.1" width="512px" height="512px" x="0" y="0" viewBox="0 0 100 100" style="enable-background:new 0 0 512 512" xml:space="preserve"><g><g id="Close"><path d="m76.78 78.13a1.32 1.32 0 0 1 -1-.4l-53.51-53.55a1.35 1.35 0 0 1 1.91-1.91l53.55 53.55a1.35 1.35 0 0 1 0 1.91 1.32 1.32 0 0 1 -.95.4z" fill="#ffffff" data-original="#000000"/><path d="m24.32 79.18a1.35 1.35 0 0 1 -1-2.27l21.68-23.44a1.36 1.36 0 0 1 2 1.84l-21.68 23.44a1.35 1.35 0 0 1 -1 .43z" fill="#ffffff" data-original="#000000"/><path d="m54.32 46.67a1.35 1.35 0 0 1 -1-2.27l21.36-23.15a1.36 1.36 0 0 1 2 1.84l-21.36 23.15a1.35 1.35 0 0 1 -1 .43z" fill="#ffffff" data-original="#000000"/></g></g></svg>
