<svg width="199" height="53" viewBox="0 0 199 53" fill="none" xmlns="http://www.w3.org/2000/svg">
<path d="M1.036 3.75L0.04 0.89H0.428L1.132 3.018L1.244 3.402H1.252C1.29733 3.23133 1.33467 3.10333 1.364 3.018L2.06 0.89H2.436L1.432 3.75H1.036ZM5.43194 3.39C5.1786 3.67 4.83994 3.81 4.41594 3.81C3.99194 3.81 3.65194 3.67 3.39594 3.39C3.1426 3.11 3.01594 2.75267 3.01594 2.318C3.01594 1.88333 3.1426 1.526 3.39594 1.246C3.65194 0.966 3.99194 0.826 4.41594 0.826C4.83994 0.826 5.1786 0.966 5.43194 1.246C5.68794 1.526 5.81594 1.88333 5.81594 2.318C5.81594 2.75267 5.68794 3.11 5.43194 3.39ZM3.65594 3.166C3.83727 3.38467 4.0906 3.494 4.41594 3.494C4.74127 3.494 4.9946 3.38467 5.17594 3.166C5.35727 2.94733 5.44794 2.66467 5.44794 2.318C5.44794 1.97133 5.35727 1.68867 5.17594 1.47C4.9946 1.24867 4.74127 1.138 4.41594 1.138C4.0906 1.138 3.83727 1.24867 3.65594 1.47C3.4746 1.68867 3.38394 1.97133 3.38394 2.318C3.38394 2.66467 3.4746 2.94733 3.65594 3.166ZM6.40534 1.206V0.89H8.66934V1.206H7.71734V3.75H7.35734V1.206H6.40534ZM9.54675 3.75V0.89H10.8827C11.1334 0.89 11.3361 0.962 11.4907 1.106C11.6481 1.25 11.7267 1.43933 11.7267 1.674C11.7267 2.03933 11.5614 2.27533 11.2307 2.382V2.394C11.3721 2.44467 11.4721 2.52467 11.5307 2.634C11.5921 2.74067 11.6294 2.90333 11.6427 3.122C11.6694 3.48733 11.7134 3.69133 11.7747 3.734V3.75H11.3867C11.3574 3.726 11.3361 3.67533 11.3227 3.598C11.3121 3.52067 11.2987 3.358 11.2827 3.11C11.2694 2.902 11.2174 2.75533 11.1267 2.67C11.0387 2.58467 10.8974 2.542 10.7027 2.542H9.90675V3.75H9.54675ZM9.90675 1.202V2.25H10.7547C10.9521 2.25 11.1014 2.20467 11.2027 2.114C11.3041 2.02067 11.3547 1.89133 11.3547 1.726C11.3547 1.54733 11.3094 1.41533 11.2187 1.33C11.1281 1.24467 10.9801 1.202 10.7747 1.202H9.90675ZM12.6839 3.75V0.89H14.7039V1.206H13.0439V2.11H14.5519V2.414H13.0439V3.418H14.7519V3.75H12.6839ZM19.0889 3.75L18.9849 3.374H18.9769C18.7689 3.66467 18.4716 3.81 18.0849 3.81C17.6849 3.81 17.3609 3.67267 17.1129 3.398C16.8649 3.12333 16.7409 2.76733 16.7409 2.33C16.7409 1.89267 16.8609 1.534 17.1009 1.254C17.3436 0.971333 17.6823 0.83 18.1169 0.83C18.4423 0.83 18.7049 0.912667 18.9049 1.078C19.1076 1.24067 19.2329 1.46467 19.2809 1.75H18.9089C18.8689 1.55533 18.7809 1.406 18.6449 1.302C18.5089 1.19533 18.3303 1.142 18.1089 1.142C17.7783 1.142 17.5289 1.25133 17.3609 1.47C17.1929 1.68867 17.1089 1.97533 17.1089 2.33C17.1089 2.67933 17.2009 2.962 17.3849 3.178C17.5689 3.39133 17.8063 3.498 18.0969 3.498C18.3769 3.498 18.5903 3.41533 18.7369 3.25C18.8863 3.08467 18.9609 2.874 18.9609 2.618V2.55H18.1009V2.238H19.3209V3.75H19.0889ZM21.3857 3.794C21.0524 3.794 20.7857 3.71533 20.5857 3.558C20.3884 3.40067 20.2897 3.15667 20.2897 2.826V0.89H20.6497V2.79C20.6497 3.254 20.899 3.486 21.3977 3.486C21.8804 3.486 22.1217 3.254 22.1217 2.79V0.89H22.4817V2.826C22.4817 3.154 22.3804 3.398 22.1777 3.558C21.9777 3.71533 21.7137 3.794 21.3857 3.794ZM23.4985 3.75V0.89H23.8585V3.75H23.4985ZM24.9207 3.75V0.89H25.9607C26.3793 0.89 26.6953 1.01933 26.9087 1.278C27.122 1.53667 27.2287 1.88733 27.2287 2.33C27.2287 2.77 27.118 3.11667 26.8967 3.37C26.6753 3.62333 26.354 3.75 25.9327 3.75H24.9207ZM25.2807 3.434H25.9207C26.5473 3.434 26.8607 3.066 26.8607 2.33C26.8607 1.578 26.5567 1.202 25.9487 1.202H25.2807V3.434ZM28.175 3.75V0.89H30.195V1.206H28.535V2.11H30.043V2.414H28.535V3.418H30.243V3.75H28.175ZM33.388 3.794C33.0547 3.794 32.788 3.71533 32.588 3.558C32.3907 3.40067 32.292 3.15667 32.292 2.826V0.89H32.652V2.79C32.652 3.254 32.9014 3.486 33.4 3.486C33.8827 3.486 34.124 3.254 34.124 2.79V0.89H34.484V2.826C34.484 3.154 34.3827 3.398 34.18 3.558C33.98 3.71533 33.716 3.794 33.388 3.794ZM35.4928 3.75V0.89H35.8528V3.418H37.3528V3.75H35.4928ZM37.6492 1.206V0.89H39.9132V1.206H38.9612V3.75H38.6012V1.206H37.6492ZM40.7987 3.75V0.89H41.1587V3.75H40.7987ZM42.2208 3.75V0.89H42.6808L43.6088 3.266H43.6168L44.5368 0.89H45.0048V3.75H44.6608V1.398H44.6528C44.6021 1.54733 44.5595 1.66733 44.5248 1.758L43.7408 3.75H43.4648L42.6808 1.758L42.5528 1.398H42.5448V3.75H42.2208ZM46.0611 3.75V0.89H48.0811V1.206H46.4211V2.11H47.9291V2.414H46.4211V3.418H48.1291V3.75H46.0611ZM50.2261 3.75V0.89H51.2661C51.6848 0.89 52.0008 1.01933 52.2141 1.278C52.4275 1.53667 52.5341 1.88733 52.5341 2.33C52.5341 2.77 52.4235 3.11667 52.2021 3.37C51.9808 3.62333 51.6595 3.75 51.2381 3.75H50.2261ZM50.5861 3.434H51.2261C51.8528 3.434 52.1661 3.066 52.1661 2.33C52.1661 1.578 51.8621 1.202 51.2541 1.202H50.5861V3.434ZM54.5285 3.794C54.1952 3.794 53.9285 3.71533 53.7285 3.558C53.5312 3.40067 53.4325 3.15667 53.4325 2.826V0.89H53.7925V2.79C53.7925 3.254 54.0418 3.486 54.5405 3.486C55.0232 3.486 55.2645 3.254 55.2645 2.79V0.89H55.6245V2.826C55.6245 3.154 55.5232 3.398 55.3205 3.558C55.1205 3.71533 54.8565 3.794 54.5285 3.794ZM57.79 3.75V0.89H58.25L59.178 3.266H59.186L60.106 0.89H60.574V3.75H60.23V1.398H60.222C60.1714 1.54733 60.1287 1.66733 60.094 1.758L59.31 3.75H59.034L58.25 1.758L58.122 1.398H58.114V3.75H57.79ZM61.4023 3.75L62.4543 0.89H62.8583L63.9143 3.75H63.5223L63.2183 2.878H62.0783L61.7703 3.75H61.4023ZM62.5223 1.626L62.1823 2.586H63.1183L62.7903 1.626L62.6623 1.222H62.6543C62.6037 1.382 62.5597 1.51667 62.5223 1.626ZM64.7441 3.75V0.89H66.0801C66.3308 0.89 66.5334 0.962 66.6881 1.106C66.8454 1.25 66.9241 1.43933 66.9241 1.674C66.9241 2.03933 66.7588 2.27533 66.4281 2.382V2.394C66.5694 2.44467 66.6694 2.52467 66.7281 2.634C66.7894 2.74067 66.8268 2.90333 66.8401 3.122C66.8668 3.48733 66.9108 3.69133 66.9721 3.734V3.75H66.5841C66.5548 3.726 66.5334 3.67533 66.5201 3.598C66.5094 3.52067 66.4961 3.358 66.4801 3.11C66.4668 2.902 66.4148 2.75533 66.3241 2.67C66.2361 2.58467 66.0948 2.542 65.9001 2.542H65.1041V3.75H64.7441ZM65.1041 1.202V2.25H65.9521C66.1494 2.25 66.2988 2.20467 66.4001 2.114C66.5014 2.02067 66.5521 1.89133 66.5521 1.726C66.5521 1.54733 66.5068 1.41533 66.4161 1.33C66.3254 1.24467 66.1774 1.202 65.9721 1.202H65.1041ZM67.8893 3.75V0.89H68.2493V3.75H67.8893ZM69.0834 3.75L70.1354 0.89H70.5394L71.5954 3.75H71.2034L70.8994 2.878H69.7594L69.4514 3.75H69.0834ZM70.2034 1.626L69.8634 2.586H70.7994L70.4714 1.626L70.3434 1.222H70.3354C70.2848 1.382 70.2408 1.51667 70.2034 1.626ZM74.5246 3.75L74.4206 3.374H74.4126C74.2046 3.66467 73.9072 3.81 73.5206 3.81C73.1206 3.81 72.7966 3.67267 72.5486 3.398C72.3006 3.12333 72.1766 2.76733 72.1766 2.33C72.1766 1.89267 72.2966 1.534 72.5366 1.254C72.7792 0.971333 73.1179 0.83 73.5526 0.83C73.8779 0.83 74.1406 0.912667 74.3406 1.078C74.5432 1.24067 74.6686 1.46467 74.7166 1.75H74.3446C74.3046 1.55533 74.2166 1.406 74.0806 1.302C73.9446 1.19533 73.7659 1.142 73.5446 1.142C73.2139 1.142 72.9646 1.25133 72.7966 1.47C72.6286 1.68867 72.5446 1.97533 72.5446 2.33C72.5446 2.67933 72.6366 2.962 72.8206 3.178C73.0046 3.39133 73.2419 3.498 73.5326 3.498C73.8126 3.498 74.0259 3.41533 74.1726 3.25C74.3219 3.08467 74.3966 2.874 74.3966 2.618V2.55H73.5366V2.238H74.7566V3.75H74.5246ZM75.7733 3.75V0.89H77.7933V1.206H76.1333V2.11H77.6413V2.414H76.1333V3.418H77.8413V3.75H75.7733Z" fill="white"/>
<path d="M52.352 6.7C52.352 6.828 52.352 7.02 51.84 7.02H51.712C50.112 7.02 48.704 8.364 46.208 19.18L38.976 51.436C38.912 51.692 38.784 51.82 38.464 51.82H35.584C35.264 51.82 35.136 51.692 35.072 51.436L25.984 16.044H25.856L17.856 51.436C17.792 51.692 17.664 51.82 17.344 51.82H14.4C14.144 51.82 14.016 51.692 13.952 51.436L3.328 9.964C2.688 7.404 2.368 7.02 1.472 7.02H0.64C0.192 7.02 0.128 6.828 0.128 6.7C0.128 6.508 0.192 6.316 0.64 6.316H12.736C13.184 6.316 13.248 6.508 13.248 6.7C13.248 6.828 13.248 7.02 12.736 7.02H10.816C9.856 7.02 9.664 7.468 10.24 9.964L18.496 44.716H18.688L24.192 18.796C25.6 12.204 25.856 7.02 22.016 7.02H20.864C20.352 7.02 20.288 6.828 20.288 6.7C20.288 6.508 20.416 6.316 20.864 6.316H33.92C34.368 6.316 34.432 6.508 34.432 6.7C34.432 6.828 34.432 7.02 33.92 7.02H32C31.04 7.02 30.848 7.468 31.424 9.964L39.68 44.716H39.808L45.376 18.796C46.784 12.204 47.04 7.02 43.2 7.02H42.048C41.536 7.02 41.536 6.828 41.536 6.7C41.536 6.508 41.6 6.316 42.048 6.316H51.84C52.288 6.316 52.352 6.508 52.352 6.7ZM73.748 51.052C73.748 51.372 73.62 51.5 73.236 51.5H48.916C48.468 51.5 48.404 51.308 48.404 51.116C48.404 50.988 48.404 50.796 48.916 50.796H51.156C51.732 50.796 51.796 50.156 51.796 48.236V9.58C51.796 7.66 51.732 7.02 51.156 7.02H48.916C48.404 7.02 48.404 6.828 48.404 6.7C48.404 6.508 48.468 6.316 48.916 6.316H71.316C71.7 6.316 71.828 6.444 71.828 6.764V20.46C71.828 20.908 71.572 20.972 71.38 20.972C71.188 20.972 70.996 20.972 70.996 20.46V19.564C70.996 13.612 68.628 7.084 62.804 7.084H58.9C58.516 7.084 58.324 7.276 58.324 7.404V27.244C58.324 27.436 58.452 27.564 58.836 27.564H61.012C63.828 27.564 65.876 24.3 65.876 20.908V20.204C65.876 19.756 66.132 19.692 66.324 19.692C66.516 19.692 66.644 19.82 66.644 20.204V35.628C66.644 36.012 66.516 36.14 66.324 36.14C66.132 36.14 65.876 36.076 65.876 35.628V34.988C65.876 31.532 63.828 28.204 61.012 28.204H58.9C58.516 28.204 58.324 28.396 58.324 28.588V50.412C58.324 50.604 58.452 50.732 58.836 50.732H62.484C71.188 50.732 72.852 41.388 72.852 37.74V36.908C72.852 36.46 73.108 36.396 73.3 36.396C73.492 36.396 73.748 36.524 73.748 36.908V51.052ZM102.352 28.588C102.352 41.452 97.68 51.5 87.312 51.5H72.656C72.208 51.5 72.144 51.308 72.144 51.116C72.144 50.988 72.144 50.796 72.656 50.796H74.896C75.472 50.796 75.536 50.156 75.536 48.236V9.58C75.536 7.66 75.472 7.02 74.896 7.02H72.656C72.144 7.02 72.144 6.828 72.144 6.7C72.144 6.508 72.208 6.316 72.656 6.316H87.312C97.424 6.316 102.352 16.876 102.352 28.588ZM94.224 37.932C94.608 31.852 94.608 25.58 94.224 19.5C93.904 13.676 93.328 7.084 87.312 7.084H82.64C82.192 7.084 82.064 7.276 82.064 7.404V50.412C82.064 50.604 82.192 50.732 82.576 50.732H87.376C93.712 50.732 93.904 43.948 94.224 37.932ZM130.405 28.588C130.405 41.452 125.733 51.5 115.365 51.5H100.709C100.261 51.5 100.197 51.308 100.197 51.116C100.197 50.988 100.197 50.796 100.709 50.796H102.949C103.525 50.796 103.589 50.156 103.589 48.236V9.58C103.589 7.66 103.525 7.02 102.949 7.02H100.709C100.197 7.02 100.197 6.828 100.197 6.7C100.197 6.508 100.261 6.316 100.709 6.316H115.365C125.477 6.316 130.405 16.876 130.405 28.588ZM122.277 37.932C122.661 31.852 122.661 25.58 122.277 19.5C121.957 13.676 121.381 7.084 115.365 7.084H110.693C110.245 7.084 110.117 7.276 110.117 7.404V50.412C110.117 50.604 110.245 50.732 110.629 50.732H115.429C121.765 50.732 121.957 43.948 122.277 37.932ZM141.561 51.116C141.561 51.308 141.497 51.5 141.049 51.5H128.761C128.313 51.5 128.249 51.308 128.249 51.116C128.249 50.988 128.249 50.796 128.761 50.796H131.001C131.577 50.796 131.641 50.156 131.641 48.236V9.58C131.641 7.66 131.577 7.02 131.001 7.02H128.761C128.249 7.02 128.249 6.828 128.249 6.7C128.249 6.508 128.313 6.316 128.761 6.316H141.049C141.497 6.316 141.561 6.508 141.561 6.7C141.561 6.828 141.561 7.02 141.049 7.02H138.809C138.233 7.02 138.169 7.66 138.169 9.58V48.236C138.169 50.156 138.233 50.796 138.809 50.796H141.049C141.561 50.796 141.561 50.988 141.561 51.116ZM169.706 6.7C169.706 6.828 169.642 7.02 169.194 7.02H169.066C166.826 7.02 166.058 8.684 166.058 21.42V51.692C166.058 51.948 165.93 52.14 165.418 52.14H162.986C162.602 52.14 162.474 51.948 162.346 51.692L143.466 9.836H143.402V35.948C143.402 47.02 144.746 50.796 148.458 50.796H149.482C149.93 50.796 149.994 50.988 149.994 51.116C149.994 51.308 149.93 51.5 149.482 51.5H139.498C139.05 51.5 138.922 51.308 138.922 51.116C138.922 50.988 138.986 50.796 139.498 50.796H139.626C141.802 50.796 142.634 49.132 142.634 36.396V9.58C142.634 7.66 142.506 7.02 141.994 7.02H139.69C139.178 7.02 139.178 6.828 139.178 6.7C139.178 6.508 139.242 6.316 139.69 6.316H148.714C149.034 6.316 149.226 6.508 149.354 6.7L165.098 41.772H165.226V21.868C165.226 10.796 163.882 7.02 160.17 7.02H159.21C158.762 7.02 158.698 6.828 158.698 6.7C158.698 6.508 158.762 6.316 159.21 6.316H169.194C169.642 6.316 169.706 6.508 169.706 6.7ZM197.44 34.028C197.44 34.156 197.44 34.348 196.928 34.348H194.752C194.176 34.348 194.112 34.988 194.112 36.908V50.988C194.112 51.5 193.92 51.628 193.728 51.628C193.536 51.628 193.28 51.564 193.28 50.988V50.796C193.28 50.092 192.768 49.772 191.36 49.772C188.096 49.772 186.304 52.268 182.08 52.268C171.648 52.268 167.36 40.236 167.36 29.292C167.36 16.044 171.968 5.548 182.336 5.548C184.96 5.548 187.584 6.572 188.992 7.212C189.824 7.596 191.04 8.3 191.04 7.212V6.764C191.04 6.188 191.232 6.124 191.424 6.124C191.616 6.124 191.872 6.252 191.872 6.764V21.292C191.872 21.74 191.616 21.804 191.424 21.804C191.232 21.804 191.04 21.74 191.04 21.292V20.652C191.04 10.476 186.432 6.188 182.272 6.188C175.872 6.188 175.808 13.164 175.488 19.692C175.168 25.9 175.168 32.172 175.488 38.38C175.808 44.716 175.872 51.628 182.208 51.628C186.304 51.628 187.584 49.132 187.584 44.972V36.908C187.584 34.988 187.52 34.348 186.944 34.348H183.36C182.912 34.348 182.784 34.22 182.784 34.028C182.784 33.836 182.848 33.644 183.296 33.644H196.928C197.376 33.644 197.44 33.836 197.44 34.028Z" fill="white"/>
</svg>
