<svg width="298" height="79" viewBox="0 0 298 79" fill="none" xmlns="http://www.w3.org/2000/svg">
<path d="M1.554 4.5L0.06 0.21H0.642L1.698 3.402L1.866 3.978H1.878C1.946 3.722 2.002 3.53 2.046 3.402L3.09 0.21H3.654L2.148 4.5H1.554ZM8.14791 3.96C7.76791 4.38 7.25991 4.59 6.62391 4.59C5.98791 4.59 5.47791 4.38 5.09391 3.96C4.71391 3.54 4.52391 3.004 4.52391 2.352C4.52391 1.7 4.71391 1.164 5.09391 0.744C5.47791 0.324 5.98791 0.114 6.62391 0.114C7.25991 0.114 7.76791 0.324 8.14791 0.744C8.53191 1.164 8.72391 1.7 8.72391 2.352C8.72391 3.004 8.53191 3.54 8.14791 3.96ZM5.48391 3.624C5.75591 3.952 6.13591 4.116 6.62391 4.116C7.11191 4.116 7.49191 3.952 7.76391 3.624C8.03591 3.296 8.17191 2.872 8.17191 2.352C8.17191 1.832 8.03591 1.408 7.76391 1.08C7.49191 0.748 7.11191 0.582 6.62391 0.582C6.13591 0.582 5.75591 0.748 5.48391 1.08C5.21191 1.408 5.07591 1.832 5.07591 2.352C5.07591 2.872 5.21191 3.296 5.48391 3.624ZM9.60802 0.684V0.21H13.004V0.684H11.576V4.5H11.036V0.684H9.60802ZM14.3201 4.5V0.21H16.3241C16.7001 0.21 17.0041 0.318 17.2361 0.534C17.4721 0.75 17.5901 1.034 17.5901 1.386C17.5901 1.934 17.3421 2.288 16.8461 2.448V2.466C17.0581 2.542 17.2081 2.662 17.2961 2.826C17.3881 2.986 17.4441 3.23 17.4641 3.558C17.5041 4.106 17.5701 4.412 17.6621 4.476V4.5H17.0801C17.0361 4.464 17.0041 4.388 16.9841 4.272C16.9681 4.156 16.9481 3.912 16.9241 3.54C16.9041 3.228 16.8261 3.008 16.6901 2.88C16.5581 2.752 16.3461 2.688 16.0541 2.688H14.8601V4.5H14.3201ZM14.8601 0.678V2.25H16.1321C16.4281 2.25 16.6521 2.182 16.8041 2.046C16.9561 1.906 17.0321 1.712 17.0321 1.464C17.0321 1.196 16.9641 0.998 16.8281 0.87C16.6921 0.742 16.4701 0.678 16.1621 0.678H14.8601ZM19.0259 4.5V0.21H22.0559V0.684H19.5659V2.04H21.8279V2.496H19.5659V4.002H22.1279V4.5H19.0259ZM28.6334 4.5L28.4774 3.936H28.4654C28.1534 4.372 27.7074 4.59 27.1274 4.59C26.5274 4.59 26.0414 4.384 25.6694 3.972C25.2974 3.56 25.1114 3.026 25.1114 2.37C25.1114 1.714 25.2914 1.176 25.6514 0.756C26.0154 0.332 26.5234 0.12 27.1754 0.12C27.6634 0.12 28.0574 0.244 28.3574 0.492C28.6614 0.736 28.8494 1.072 28.9214 1.5H28.3634C28.3034 1.208 28.1714 0.984 27.9674 0.828C27.7634 0.668 27.4954 0.588 27.1634 0.588C26.6674 0.588 26.2934 0.752 26.0414 1.08C25.7894 1.408 25.6634 1.838 25.6634 2.37C25.6634 2.894 25.8014 3.318 26.0774 3.642C26.3534 3.962 26.7094 4.122 27.1454 4.122C27.5654 4.122 27.8854 3.998 28.1054 3.75C28.3294 3.502 28.4414 3.186 28.4414 2.802V2.7H27.1514V2.232H28.9814V4.5H28.6334ZM32.0785 4.566C31.5785 4.566 31.1785 4.448 30.8785 4.212C30.5825 3.976 30.4345 3.61 30.4345 3.114V0.21H30.9745V3.06C30.9745 3.756 31.3485 4.104 32.0965 4.104C32.8205 4.104 33.1825 3.756 33.1825 3.06V0.21H33.7225V3.114C33.7225 3.606 33.5705 3.972 33.2665 4.212C32.9665 4.448 32.5705 4.566 32.0785 4.566ZM35.2477 4.5V0.21H35.7877V4.5H35.2477ZM37.381 4.5V0.21H38.941C39.569 0.21 40.043 0.404 40.363 0.792C40.683 1.18 40.843 1.706 40.843 2.37C40.843 3.03 40.677 3.55 40.345 3.93C40.013 4.31 39.531 4.5 38.899 4.5H37.381ZM37.921 4.026H38.881C39.821 4.026 40.291 3.474 40.291 2.37C40.291 1.242 39.835 0.678 38.923 0.678H37.921V4.026ZM42.2625 4.5V0.21H45.2925V0.684H42.8025V2.04H45.0645V2.496H42.8025V4.002H45.3645V4.5H42.2625ZM50.082 4.566C49.582 4.566 49.182 4.448 48.882 4.212C48.586 3.976 48.438 3.61 48.438 3.114V0.21H48.978V3.06C48.978 3.756 49.352 4.104 50.1 4.104C50.824 4.104 51.186 3.756 51.186 3.06V0.21H51.726V3.114C51.726 3.606 51.574 3.972 51.27 4.212C50.97 4.448 50.574 4.566 50.082 4.566ZM53.2393 4.5V0.21H53.7793V4.002H56.0293V4.5H53.2393ZM56.4739 0.684V0.21H59.8699V0.684H58.4419V4.5H57.9019V0.684H56.4739ZM61.198 4.5V0.21H61.738V4.5H61.198ZM63.3312 4.5V0.21H64.0212L65.4132 3.774H65.4252L66.8052 0.21H67.5072V4.5H66.9912V0.972H66.9792C66.9032 1.196 66.8392 1.376 66.7872 1.512L65.6112 4.5H65.1972L64.0212 1.512L63.8292 0.972H63.8172V4.5H63.3312ZM69.0917 4.5V0.21H72.1217V0.684H69.6317V2.04H71.8937V2.496H69.6317V4.002H72.1937V4.5H69.0917ZM75.3392 4.5V0.21H76.8992C77.5272 0.21 78.0012 0.404 78.3212 0.792C78.6412 1.18 78.8012 1.706 78.8012 2.37C78.8012 3.03 78.6352 3.55 78.3032 3.93C77.9712 4.31 77.4892 4.5 76.8572 4.5H75.3392ZM75.8792 4.026H76.8392C77.7792 4.026 78.2492 3.474 78.2492 2.37C78.2492 1.242 77.7932 0.678 76.8812 0.678H75.8792V4.026ZM81.7927 4.566C81.2927 4.566 80.8927 4.448 80.5927 4.212C80.2967 3.976 80.1487 3.61 80.1487 3.114V0.21H80.6887V3.06C80.6887 3.756 81.0627 4.104 81.8107 4.104C82.5347 4.104 82.8967 3.756 82.8967 3.06V0.21H83.4367V3.114C83.4367 3.606 83.2847 3.972 82.9807 4.212C82.6807 4.448 82.2847 4.566 81.7927 4.566ZM86.685 4.5V0.21H87.375L88.767 3.774H88.779L90.159 0.21H90.861V4.5H90.345V0.972H90.333C90.257 1.196 90.193 1.376 90.141 1.512L88.965 4.5H88.551L87.375 1.512L87.183 0.972H87.171V4.5H86.685ZM92.1035 4.5L93.6815 0.21H94.2875L95.8715 4.5H95.2835L94.8275 3.192H93.1175L92.6555 4.5H92.1035ZM93.7835 1.314L93.2735 2.754H94.6775L94.1855 1.314L93.9935 0.708H93.9815C93.9055 0.948 93.8395 1.15 93.7835 1.314ZM97.1161 4.5V0.21H99.1201C99.4961 0.21 99.8001 0.318 100.032 0.534C100.268 0.75 100.386 1.034 100.386 1.386C100.386 1.934 100.138 2.288 99.6421 2.448V2.466C99.8541 2.542 100.004 2.662 100.092 2.826C100.184 2.986 100.24 3.23 100.26 3.558C100.3 4.106 100.366 4.412 100.458 4.476V4.5H99.8761C99.8321 4.464 99.8001 4.388 99.7801 4.272C99.7641 4.156 99.7441 3.912 99.7201 3.54C99.7001 3.228 99.6221 3.008 99.4861 2.88C99.3541 2.752 99.1421 2.688 98.8501 2.688H97.6561V4.5H97.1161ZM97.6561 0.678V2.25H98.9281C99.2241 2.25 99.4481 2.182 99.6001 2.046C99.7521 1.906 99.8281 1.712 99.8281 1.464C99.8281 1.196 99.7601 0.998 99.6241 0.87C99.4881 0.742 99.2661 0.678 98.9581 0.678H97.6561ZM101.834 4.5V0.21H102.374V4.5H101.834ZM103.625 4.5L105.203 0.21H105.809L107.393 4.5H106.805L106.349 3.192H104.639L104.177 4.5H103.625ZM105.305 1.314L104.795 2.754H106.199L105.707 1.314L105.515 0.708H105.503C105.427 0.948 105.361 1.15 105.305 1.314ZM111.787 4.5L111.631 3.936H111.619C111.307 4.372 110.861 4.59 110.281 4.59C109.681 4.59 109.195 4.384 108.823 3.972C108.451 3.56 108.265 3.026 108.265 2.37C108.265 1.714 108.445 1.176 108.805 0.756C109.169 0.332 109.677 0.12 110.329 0.12C110.817 0.12 111.211 0.244 111.511 0.492C111.815 0.736 112.003 1.072 112.075 1.5H111.517C111.457 1.208 111.325 0.984 111.121 0.828C110.917 0.668 110.649 0.588 110.317 0.588C109.821 0.588 109.447 0.752 109.195 1.08C108.943 1.408 108.817 1.838 108.817 2.37C108.817 2.894 108.955 3.318 109.231 3.642C109.507 3.962 109.863 4.122 110.299 4.122C110.719 4.122 111.039 3.998 111.259 3.75C111.483 3.502 111.595 3.186 111.595 2.802V2.7H110.305V2.232H112.135V4.5H111.787ZM113.66 4.5V0.21H116.69V0.684H114.2V2.04H116.462V2.496H114.2V4.002H116.762V4.5H113.66Z" fill="black"/>
<path d="M78.528 9.8C78.528 9.992 78.528 10.28 77.76 10.28H77.568C75.168 10.28 73.056 12.296 69.312 28.52L58.464 76.904C58.368 77.288 58.176 77.48 57.696 77.48H53.376C52.896 77.48 52.704 77.288 52.608 76.904L38.976 23.816H38.784L26.784 76.904C26.688 77.288 26.496 77.48 26.016 77.48H21.6C21.216 77.48 21.024 77.288 20.928 76.904L4.992 14.696C4.032 10.856 3.552 10.28 2.208 10.28H0.96C0.288 10.28 0.192 9.992 0.192 9.8C0.192 9.512 0.288 9.224 0.96 9.224H19.104C19.776 9.224 19.872 9.512 19.872 9.8C19.872 9.992 19.872 10.28 19.104 10.28H16.224C14.784 10.28 14.496 10.952 15.36 14.696L27.744 66.824H28.032L36.288 27.944C38.4 18.056 38.784 10.28 33.024 10.28H31.296C30.528 10.28 30.432 9.992 30.432 9.8C30.432 9.512 30.624 9.224 31.296 9.224H50.88C51.552 9.224 51.648 9.512 51.648 9.8C51.648 9.992 51.648 10.28 50.88 10.28H48C46.56 10.28 46.272 10.952 47.136 14.696L59.52 66.824H59.712L68.064 27.944C70.176 18.056 70.56 10.28 64.8 10.28H63.072C62.304 10.28 62.304 9.992 62.304 9.8C62.304 9.512 62.4 9.224 63.072 9.224H77.76C78.432 9.224 78.528 9.512 78.528 9.8ZM110.622 76.328C110.622 76.808 110.43 77 109.854 77H73.374C72.702 77 72.606 76.712 72.606 76.424C72.606 76.232 72.606 75.944 73.374 75.944H76.734C77.598 75.944 77.694 74.984 77.694 72.104V14.12C77.694 11.24 77.598 10.28 76.734 10.28H73.374C72.606 10.28 72.606 9.992 72.606 9.8C72.606 9.512 72.702 9.224 73.374 9.224H106.974C107.55 9.224 107.742 9.41599 107.742 9.89599V30.44C107.742 31.112 107.358 31.208 107.07 31.208C106.782 31.208 106.494 31.208 106.494 30.44V29.096C106.494 20.168 102.942 10.376 94.206 10.376H88.35C87.774 10.376 87.486 10.664 87.486 10.856V40.616C87.486 40.904 87.678 41.096 88.254 41.096H91.518C95.742 41.096 98.814 36.2 98.814 31.112V30.056C98.814 29.384 99.198 29.288 99.486 29.288C99.774 29.288 99.966 29.48 99.966 30.056V53.192C99.966 53.768 99.774 53.96 99.486 53.96C99.198 53.96 98.814 53.864 98.814 53.192V52.232C98.814 47.048 95.742 42.056 91.518 42.056H88.35C87.774 42.056 87.486 42.344 87.486 42.632V75.368C87.486 75.656 87.678 75.848 88.254 75.848H93.726C106.782 75.848 109.278 61.832 109.278 56.36V55.112C109.278 54.44 109.662 54.344 109.95 54.344C110.238 54.344 110.622 54.536 110.622 55.112V76.328ZM153.528 42.632C153.528 61.928 146.52 77 130.968 77H108.984C108.312 77 108.216 76.712 108.216 76.424C108.216 76.232 108.216 75.944 108.984 75.944H112.344C113.208 75.944 113.304 74.984 113.304 72.104V14.12C113.304 11.24 113.208 10.28 112.344 10.28H108.984C108.216 10.28 108.216 9.992 108.216 9.8C108.216 9.512 108.312 9.224 108.984 9.224H130.968C146.136 9.224 153.528 25.064 153.528 42.632ZM141.336 56.648C141.912 47.528 141.912 38.12 141.336 29C140.856 20.264 139.992 10.376 130.968 10.376H123.96C123.288 10.376 123.096 10.664 123.096 10.856V75.368C123.096 75.656 123.288 75.848 123.864 75.848H131.064C140.568 75.848 140.856 65.672 141.336 56.648ZM195.607 42.632C195.607 61.928 188.599 77 173.047 77H151.063C150.391 77 150.295 76.712 150.295 76.424C150.295 76.232 150.295 75.944 151.063 75.944H154.423C155.287 75.944 155.383 74.984 155.383 72.104V14.12C155.383 11.24 155.287 10.28 154.423 10.28H151.063C150.295 10.28 150.295 9.992 150.295 9.8C150.295 9.512 150.391 9.224 151.063 9.224H173.047C188.215 9.224 195.607 25.064 195.607 42.632ZM183.415 56.648C183.991 47.528 183.991 38.12 183.415 29C182.935 20.264 182.071 10.376 173.047 10.376H166.039C165.367 10.376 165.175 10.664 165.175 10.856V75.368C165.175 75.656 165.367 75.848 165.943 75.848H173.143C182.647 75.848 182.935 65.672 183.415 56.648ZM212.342 76.424C212.342 76.712 212.246 77 211.574 77H193.142C192.47 77 192.374 76.712 192.374 76.424C192.374 76.232 192.374 75.944 193.142 75.944H196.502C197.366 75.944 197.462 74.984 197.462 72.104V14.12C197.462 11.24 197.366 10.28 196.502 10.28H193.142C192.374 10.28 192.374 9.992 192.374 9.8C192.374 9.512 192.47 9.224 193.142 9.224H211.574C212.246 9.224 212.342 9.512 212.342 9.8C212.342 9.992 212.342 10.28 211.574 10.28H208.214C207.35 10.28 207.254 11.24 207.254 14.12V72.104C207.254 74.984 207.35 75.944 208.214 75.944H211.574C212.342 75.944 212.342 76.232 212.342 76.424ZM254.559 9.8C254.559 9.992 254.463 10.28 253.791 10.28H253.599C250.239 10.28 249.087 12.776 249.087 31.88V77.288C249.087 77.672 248.895 77.96 248.127 77.96H244.479C243.903 77.96 243.711 77.672 243.519 77.288L215.199 14.504H215.103V53.672C215.103 70.28 217.119 75.944 222.687 75.944H224.223C224.895 75.944 224.991 76.232 224.991 76.424C224.991 76.712 224.895 77 224.223 77H209.247C208.575 77 208.383 76.712 208.383 76.424C208.383 76.232 208.479 75.944 209.247 75.944H209.439C212.703 75.944 213.951 73.448 213.951 54.344V14.12C213.951 11.24 213.759 10.28 212.991 10.28H209.535C208.767 10.28 208.767 9.992 208.767 9.8C208.767 9.512 208.863 9.224 209.535 9.224H223.071C223.551 9.224 223.839 9.512 224.031 9.8L247.647 62.408H247.839V32.552C247.839 15.944 245.823 10.28 240.255 10.28H238.815C238.143 10.28 238.047 9.992 238.047 9.8C238.047 9.512 238.143 9.224 238.815 9.224H253.791C254.463 9.224 254.559 9.512 254.559 9.8ZM296.16 50.792C296.16 50.984 296.16 51.272 295.392 51.272H292.128C291.264 51.272 291.168 52.232 291.168 55.112V76.232C291.168 77 290.88 77.192 290.592 77.192C290.304 77.192 289.92 77.096 289.92 76.232V75.944C289.92 74.888 289.152 74.408 287.04 74.408C282.144 74.408 279.456 78.152 273.12 78.152C257.472 78.152 251.04 60.104 251.04 43.688C251.04 23.816 257.952 8.07199 273.504 8.07199C277.44 8.07199 281.376 9.608 283.488 10.568C284.736 11.144 286.56 12.2 286.56 10.568V9.89599C286.56 9.032 286.848 8.936 287.136 8.936C287.424 8.936 287.808 9.128 287.808 9.89599V31.688C287.808 32.36 287.424 32.456 287.136 32.456C286.848 32.456 286.56 32.36 286.56 31.688V30.728C286.56 15.464 279.648 9.032 273.408 9.032C263.808 9.032 263.712 19.496 263.232 29.288C262.752 38.6 262.752 48.008 263.232 57.32C263.712 66.824 263.808 77.192 273.312 77.192C279.456 77.192 281.376 73.448 281.376 67.208V55.112C281.376 52.232 281.28 51.272 280.416 51.272H275.04C274.368 51.272 274.176 51.08 274.176 50.792C274.176 50.504 274.272 50.216 274.944 50.216H295.392C296.064 50.216 296.16 50.504 296.16 50.792Z" fill="black"/>
</svg>
